<?xml version="1.0" encoding="UTF-8"?>
<!DOCTYPE svg PUBLIC "-//W3C//DTD SVG 1.1//EN" "http://www.w3.org/Graphics/SVG/1.1/DTD/svg11.dtd">
<svg version="1.1" xmlns="http://www.w3.org/2000/svg" xmlns:xlink="http://www.w3.org/1999/xlink" width="658" height="306">
<g style="fill:none;stroke:black">
<polygon points="504.8,9.8 559.906,20.761 606.623,51.977 637.839,98.693 648.8,153.8 637.839,208.906 606.623,255.623 559.906,286.839 504.8,297.8 449.693,286.839 402.977,255.623 371.761,208.906 360.8,153.8 371.761,98.693 402.977,51.977 449.693,20.761"/>
<polygon points="89.693,20.761 11.761,98.693 11.761,208.906 89.693,286.839 199.906,286.839 277.838,208.906 277.838,98.693 199.906,20.761 106.914,62.336 53.336,115.914 53.336,191.686 106.914,245.264 182.686,245.264 236.264,191.686 236.264,115.914 182.686,62.336"/>
<line x1="106.914" y1="62.336" x2="89.693" y2="20.761"/>
<line x1="11.761" y1="98.693" x2="53.336" y2="115.914"/>
<line x1="11.761" y1="208.906" x2="53.336" y2="191.686"/>
<line x1="106.914" y1="245.264" x2="89.693" y2="286.839"/>
<line x1="182.686" y1="245.264" x2="199.906" y2="286.839"/>
<line x1="236.264" y1="191.686" x2="277.838" y2="208.906"/>
<line x1="236.264" y1="115.914" x2="277.838" y2="98.693"/>
<line x1="182.686" y1="62.336" x2="199.906" y2="20.761"/>
<line x1="504.8" y1="9.8" x2="504.8" y2="297.8"/>
<line x1="449.693" y1="286.839" x2="559.906" y2="20.761"/>
<line x1="402.977" y1="255.623" x2="606.623" y2="51.977"/>
<line x1="371.761" y1="208.906" x2="637.839" y2="98.693"/>
<line x1="360.8" y1="153.8" x2="648.8" y2="153.8"/>
<line x1="371.761" y1="98.693" x2="637.839" y2="208.906"/>
<line x1="402.977" y1="51.977" x2="606.623" y2="255.623"/>
<line x1="449.693" y1="20.761" x2="559.906" y2="286.839"/>
</g>
<g style="fill:blue;stroke:black">
<circle cx="89.693" cy="20.761" r="5"/>
<circle cx="106.914" cy="62.336" r="5"/>
<circle cx="11.761" cy="98.693" r="5"/>
<circle cx="53.336" cy="115.914" r="5"/>
<circle cx="11.761" cy="208.906" r="5"/>
<circle cx="53.336" cy="191.686" r="5"/>
<circle cx="106.914" cy="245.264" r="5"/>
<circle cx="89.693" cy="286.839" r="5"/>
<circle cx="182.686" cy="245.264" r="5"/>
<circle cx="199.906" cy="286.839" r="5"/>
<circle cx="236.264" cy="191.686" r="5"/>
<circle cx="277.838" cy="208.906" r="5"/>
<circle cx="236.264" cy="115.914" r="5"/>
<circle cx="277.838" cy="98.693" r="5"/>
<circle cx="182.686" cy="62.336" r="5"/>
<circle cx="199.906" cy="20.761" r="5"/>
<circle cx="504.8" cy="9.8" r="5"/>
<circle cx="559.906" cy="20.761" r="5"/>
<circle cx="606.623" cy="51.977" r="5"/>
<circle cx="637.839" cy="98.693" r="5"/>
<circle cx="648.8" cy="153.8" r="5"/>
<circle cx="637.839" cy="208.906" r="5"/>
<circle cx="606.623" cy="255.623" r="5"/>
<circle cx="559.906" cy="286.839" r="5"/>
<circle cx="504.8" cy="297.8" r="5"/>
<circle cx="449.693" cy="286.839" r="5"/>
<circle cx="402.977" cy="255.623" r="5"/>
<circle cx="371.761" cy="208.906" r="5"/>
<circle cx="360.8" cy="153.8" r="5"/>
<circle cx="371.761" cy="98.693" r="5"/>
<circle cx="402.977" cy="51.977" r="5"/>
<circle cx="449.693" cy="20.761" r="5"/>
</g>
</svg>